HIERARCHY
ROOT Hips
{
	OFFSET 0.00000 0.00000 0.00000
	CHANNELS 6 Xposition Yposition Zposition Zrotation Yrotation Xrotation 
	JOINT LHipJoint
	{
		OFFSET 0 0 0
		CHANNELS 3 Zrotation Yrotation Xrotation
		JOINT LeftUpLeg
		{
			OFFSET 1.74857 -1.85566 0.69197
			CHANNELS 3 Zrotation Yrotation Xrotation
			JOINT LeftLeg
			{
				OFFSET 2.40003 -6.59403 0.00000
				CHANNELS 3 Zrotation Yrotation Xrotation
				JOINT LeftFoot
				{
					OFFSET 2.82169 -7.75254 0.00000
					CHANNELS 3 Zrotation Yrotation Xrotation
					JOINT LeftToeBase
					{
						OFFSET 0.16466 -0.45240 2.26890
						CHANNELS 3 Zrotation Yrotation Xrotation
						End Site
						{
							OFFSET 0.00000 -0.00000 1.16486
						}
					}
				}
			}
		}
	}
	JOINT RHipJoint
	{
		OFFSET 0 0 0
		CHANNELS 3 Zrotation Yrotation Xrotation
		JOINT RightUpLeg
		{
			OFFSET -1.64169 -1.85566 0.69197
			CHANNELS 3 Zrotation Yrotation Xrotation
			JOINT RightLeg
			{
				OFFSET -2.41814 -6.64379 0.00000
				CHANNELS 3 Zrotation Yrotation Xrotation
				JOINT RightFoot
				{
					OFFSET -2.80588 -7.70911 0.00000
					CHANNELS 3 Zrotation Yrotation Xrotation
					JOINT RightToeBase
					{
						OFFSET -0.19098 -0.52472 2.25401
						CHANNELS 3 Zrotation Yrotation Xrotation
						End Site
						{
							OFFSET -0.00000 -0.00000 1.16333
						}
					}
				}
			}
		}
	}
	JOINT LowerBack
	{
		OFFSET 0 0 0
		CHANNELS 3 Zrotation Yrotation Xrotation
		JOINT Spine
		{
			OFFSET -0.02828 2.14690 -0.11061
			CHANNELS 3 Zrotation Yrotation Xrotation
			JOINT Spine1
			{
				OFFSET -0.00167 2.15299 0.00759
				CHANNELS 3 Zrotation Yrotation Xrotation
				JOINT Neck
				{
					OFFSET 0 0 0
					CHANNELS 3 Zrotation Yrotation Xrotation
					JOINT Neck1
					{
						OFFSET -0.09296 1.90118 0.07197
						CHANNELS 3 Zrotation Yrotation Xrotation
						JOINT Head
						{
							OFFSET 0.08490 1.89526 -0.24604
							CHANNELS 3 Zrotation Yrotation Xrotation
							End Site
							{
								OFFSET 0.03186 1.92109 -0.09483
							}
						}
					}
				}
				JOINT LeftShoulder
				{
					OFFSET 0 0 0
					CHANNELS 3 Zrotation Yrotation Xrotation
					JOINT LeftArm
					{
						OFFSET 3.21569 1.44644 -0.03720
						CHANNELS 3 Zrotation Yrotation Xrotation
						JOINT LeftForeArm
						{
							OFFSET 5.47651 -0.00000 -0.00000
							CHANNELS 3 Zrotation Yrotation Xrotation
							JOINT LeftHand
							{
								OFFSET 3.09058 -0.00000 -0.00000
								CHANNELS 3 Zrotation Yrotation Xrotation
								JOINT LeftFingerBase
								{
									OFFSET 0 0 0
									CHANNELS 3 Zrotation Yrotation Xrotation
									JOINT LeftHandIndex1
									{
										OFFSET 0.77161 -0.00000 -0.00000
										CHANNELS 3 Zrotation Yrotation Xrotation
										End Site
										{
											OFFSET 0.62209 -0.00000 -0.00000
										}
									}
								}
								JOINT LThumb
								{
									OFFSET 0 0 0
									CHANNELS 3 Zrotation Yrotation Xrotation
									End Site
									{
										OFFSET 0.63159 -0.00000 0.63159
									}
								}
							}
						}
					}
				}
				JOINT RightShoulder
				{
					OFFSET 0 0 0
					CHANNELS 3 Zrotation Yrotation Xrotation
					JOINT RightArm
					{
						OFFSET -3.38693 1.28904 -0.07093
						CHANNELS 3 Zrotation Yrotation Xrotation
						JOINT RightForeArm
						{
							OFFSET -5.14182 -0.00000 -0.00000
							CHANNELS 3 Zrotation Yrotation Xrotation
							JOINT RightHand
							{
								OFFSET -3.35565 -0.00000 -0.00000
								CHANNELS 3 Zrotation Yrotation Xrotation
								JOINT RightFingerBase
								{
									OFFSET 0 0 0
									CHANNELS 3 Zrotation Yrotation Xrotation
									JOINT RightHandIndex1
									{
										OFFSET -0.80104 -0.00000 -0.00000
										CHANNELS 3 Zrotation Yrotation Xrotation
										End Site
										{
											OFFSET -0.64582 -0.00000 -0.00000
										}
									}
								}
								JOINT RThumb
								{
									OFFSET 0 0 0
									CHANNELS 3 Zrotation Yrotation Xrotation
									End Site
									{
										OFFSET -0.65568 -0.00000 0.65568
									}
								}
							}
						}
					}
				}
			}
		}
	}
}
MOTION
Frames: 11
Frame Time: .0083333
0.4547 16.4808 0.4100 4.0507 10.2735 1.5777 0.0000 0.0000 0.0000 -24.0370 -9.2674 -23.2762 8.8118 16.6850 55.4368 3.0308 0.0114 -33.0349 0.8349 -5.8291 -16.2894 0.0000 0.0000 0.0000 11.2853 -4.7286 -25.5900 -9.7331 -17.2570 58.5926 -2.7344 -10.9750 -36.5771 -0.7900 5.6739 -15.8413 -2.2558 3.2150 10.0189 -0.7891 4.0298 3.2886 -0.0295 2.0097 -2.2821 -5.6475 -4.0602 -4.7194 3.9704 -5.7258 26.6931 1.8078 -2.7553 9.4401 -0.0000 0.0000 0.0000 -41.8767 -17.8402 53.2649 155.1709 -36.0288 -111.8108 -0.0000 0.0000 -77.8156 -49.2475 38.3684 -35.7657 -7.1250 0.0000 -0.0000 -80.8633 51.9505 -28.3854 -0.0000 0.0000 0.0000 42.8093 7.2816 53.8338 -152.9762 38.2019 -110.4862 0.0000 -0.0000 -77.4805 57.5876 -2.8964 -4.5503 7.1250 -0.0000 -0.0000 43.3177 -8.0674 60.2109
0.4545 16.4782 0.4083 4.1010 10.2673 1.6374 0.0000 0.0000 0.0000 -24.0838 -9.2839 -23.3599 8.8301 16.6971 55.5007 3.0332 0.0317 -33.0543 0.8425 -5.8548 -16.3637 0.0000 0.0000 0.0000 11.2263 -4.6860 -25.7066 -9.7604 -17.2729 58.6846 -2.6749 -11.3044 -36.4784 -0.8729 5.9568 -16.6590 -2.2960 3.2034 10.1000 -0.8090 4.0075 3.3082 -0.0290 1.9986 -2.3070 -5.7743 -4.1010 -4.3693 4.1277 -5.8128 26.4169 1.8812 -2.7986 9.2896 -0.0000 0.0000 0.0000 -41.9660 -17.6954 53.0241 155.1526 -36.0476 -111.8000 -0.0000 0.0000 -77.8086 -49.4556 38.3018 -35.9256 -7.1250 0.0000 -0.0000 -80.8908 51.8859 -28.2442 -0.0000 0.0000 0.0000 42.8705 7.2645 53.6513 -152.9495 38.2273 -110.4696 0.0000 -0.0000 -77.3972 57.6905 -2.8623 -4.5148 7.1250 -0.0000 -0.0000 43.2939 -7.8085 60.5042
0.4539 16.4743 0.4035 4.0471 10.2682 1.6878 0.0000 0.0000 0.0000 -23.9985 -9.3025 -23.5107 8.8578 16.7153 55.5969 3.0293 -0.0136 -33.0190 0.8418 -5.8522 -16.3562 0.0000 0.0000 0.0000 11.2934 -4.6017 -25.8216 -9.7894 -17.2897 58.7823 -2.6353 -11.5259 -36.4159 -0.9215 6.1160 -17.1215 -2.2559 3.1836 10.2477 -0.7976 3.9804 3.3028 -0.0451 1.9854 -2.3913 -5.8405 -4.1280 -3.9146 4.2278 -5.8776 26.0991 1.9288 -2.8332 9.1008 -0.0000 0.0000 0.0000 -42.0638 -17.5646 52.6894 155.1541 -36.0461 -111.8009 -0.0000 0.0000 -77.8494 -49.5169 38.3740 -36.0279 -7.1250 0.0000 -0.0000 -81.0275 51.9043 -28.4216 -0.0000 0.0000 0.0000 42.9215 7.2593 53.4167 -152.9235 38.2520 -110.4536 0.0000 -0.0000 -77.3843 57.7364 -2.7973 -4.4206 7.1250 -0.0000 -0.0000 43.2743 -7.6164 60.7092
0.4535 16.4711 0.3979 3.9400 10.2665 1.7285 0.0000 0.0000 0.0000 -23.8553 -9.3309 -23.6757 8.8915 16.7374 55.7142 3.0230 -0.0018 -32.9877 0.8649 -5.9300 -16.5815 0.0000 0.0000 0.0000 11.4149 -4.5166 -25.9355 -9.8202 -17.3075 58.8859 -2.6548 -11.3535 -36.4053 -0.8703 5.9480 -16.6337 -2.1918 3.1556 10.3978 -0.7450 3.9465 3.3147 -0.0305 1.9685 -2.4601 -5.7306 -4.0933 -3.7515 4.1035 -5.8158 25.9520 1.8762 -2.8089 9.0077 0.0000 -0.0000 0.0000 -42.2287 -17.5504 52.2141 155.0921 -36.1097 -111.7644 -0.0000 0.0000 -77.8634 -49.2540 38.4104 -35.7970 -7.1250 0.0000 -0.0000 -80.9258 51.9665 -28.4857 0.0000 -0.0000 0.0000 42.9239 7.3270 53.1270 -152.8952 38.2790 -110.4360 0.0000 -0.0000 -77.2809 57.7238 -2.6912 -4.2516 7.1250 -0.0000 -0.0000 43.2570 -7.4811 60.8357
0.4543 16.4681 0.3932 3.8862 10.2609 1.8112 0.0000 0.0000 0.0000 -23.7686 -9.3775 -23.8612 8.9241 16.7586 55.8273 3.0239 -0.0447 -32.9796 0.8562 -5.9008 -16.4969 0.0000 0.0000 0.0000 11.4708 -4.4488 -26.1097 -9.8550 -17.3275 59.0027 -2.6610 -11.2351 -36.3613 -0.8405 5.8481 -16.3444 -2.1246 3.1384 10.4846 -0.7315 3.9286 3.3474 -0.0556 1.9594 -2.4700 -5.6117 -4.0516 -3.5922 4.0396 -5.7558 25.6446 1.8421 -2.7797 8.8611 0.0000 -0.0000 0.0000 -42.3898 -17.7213 51.6685 154.9939 -36.2102 -111.7065 -0.0000 0.0000 -77.6879 -49.0002 38.3959 -35.5454 -7.1250 0.0000 -0.0000 -80.7577 52.0066 -28.4297 0.0000 -0.0000 0.0000 42.9496 7.4566 52.6659 -152.8611 38.3114 -110.4149 0.0000 -0.0000 -77.2060 57.6860 -2.7085 -4.2725 7.1250 -0.0000 -0.0000 43.2660 -7.5840 60.7208
0.4543 16.4640 0.3904 3.9377 10.2461 1.9467 0.0000 0.0000 0.0000 -23.7996 -9.4517 -24.0636 8.9556 16.7791 55.9364 3.0262 0.1430 -33.0498 0.9002 -6.0466 -16.9197 0.0000 0.0000 0.0000 11.4079 -4.3778 -26.3298 -9.8939 -17.3498 59.1333 -2.6465 -11.3689 -36.3721 -0.8688 5.9430 -16.6190 -2.1970 3.1027 10.5074 -0.7359 3.8742 3.4055 -0.0121 1.9318 -2.4255 -5.5827 -3.9873 -3.3022 4.0516 -5.6735 25.2012 1.8533 -2.7440 8.6480 -0.0000 0.0000 0.0000 -42.5822 -17.8417 50.9146 154.9632 -36.2416 -111.6883 -0.0000 0.0000 -77.4997 -48.6989 38.4929 -35.3159 -7.1250 0.0000 -0.0000 -80.7160 52.1013 -28.6326 -0.0000 0.0000 0.0000 42.9828 7.7445 52.0224 -152.8359 38.3353 -110.3993 0.0000 -0.0000 -77.3068 57.7342 -2.8866 -4.5605 7.1250 -0.0000 -0.0000 43.2913 -7.7570 60.5715
0.4553 16.4586 0.3883 3.9880 10.2165 2.0513 0.0000 0.0000 0.0000 -23.8364 -9.4787 -24.2270 8.9851 16.7981 56.0384 3.0389 0.2118 -33.1414 0.9339 -6.1560 -17.2376 0.0000 0.0000 0.0000 11.3324 -4.2908 -26.5007 -9.9357 -17.3735 59.2733 -2.6615 -11.3609 -36.4448 -0.8749 5.9634 -16.6783 -2.3188 3.0593 10.5534 -0.6877 3.8051 3.4678 0.1138 1.8967 -2.3957 -5.4891 -3.8474 -3.1778 3.9169 -5.4563 24.8946 1.8128 -2.6494 8.5006 -0.0000 0.0000 0.0000 -42.8991 -17.8726 49.8479 154.9885 -36.2157 -111.7033 -0.0000 0.0000 -77.6648 -48.6140 38.6848 -35.3486 -7.1250 0.0000 -0.0000 -80.9324 52.1953 -29.0764 -0.0000 0.0000 0.0000 42.9794 8.1006 51.2805 -152.7952 38.3738 -110.3740 0.0000 -0.0000 -77.4228 57.8254 -2.9734 -4.7135 7.1250 -0.0000 -0.0000 43.2925 -7.7045 60.6581
0.4566 16.4536 0.3868 3.9317 10.1850 2.1250 0.0000 0.0000 0.0000 -23.7474 -9.4582 -24.4070 9.0175 16.8190 56.1507 3.0409 0.0834 -33.1122 0.9169 -6.1010 -17.0778 0.0000 0.0000 0.0000 11.3784 -4.2084 -26.6545 -9.9737 -17.3950 59.4005 -2.6760 -11.2875 -36.4733 -0.8589 5.9100 -16.5234 -2.3019 3.0617 10.6366 -0.6229 3.8090 3.4613 0.1659 1.8986 -2.4514 -5.7360 -3.8661 -1.9953 4.1442 -5.5322 23.9203 1.9453 -2.7059 7.9718 -0.0000 0.0000 0.0000 -43.3198 -18.0291 48.8797 154.9647 -36.2400 -111.6893 -0.0000 0.0000 -77.7891 -48.8213 38.7047 -35.5578 -7.1250 0.0000 -0.0000 -81.0826 52.1651 -29.1429 -0.0000 0.0000 0.0000 43.0677 8.2931 50.5419 -152.6844 38.4785 -110.3052 0.0000 -0.0000 -77.4148 58.3347 -2.9409 -4.7552 7.1250 -0.0000 -0.0000 43.2083 -6.6014 61.9177
0.4574 16.4478 0.3855 3.9025 10.1597 2.1929 0.0000 0.0000 0.0000 -23.6924 -9.4478 -24.5580 9.0439 16.8359 56.2417 3.0446 -0.0614 -33.0887 0.8850 -5.9970 -16.7757 0.0000 0.0000 0.0000 11.3986 -4.1717 -26.8034 -10.0091 -17.4150 59.5187 -2.6751 -11.3007 -36.4768 -0.8709 5.9501 -16.6397 -2.2320 3.1242 10.7680 -0.6568 3.8929 3.4257 0.0725 1.9410 -2.5552 -5.5421 -3.8983 -0.9163 4.1913 -5.6239 22.9548 1.9414 -2.7470 7.4561 0.0000 -0.0000 0.0000 -43.7025 -18.3225 48.1881 154.9147 -36.2910 -111.6597 -0.0000 0.0000 -77.5674 -49.1790 38.5679 -35.8191 -7.1250 0.0000 -0.0000 -81.1023 52.0442 -28.8532 0.0000 -0.0000 0.0000 43.3445 8.2961 49.6640 -152.5970 38.5608 -110.2507 0.0000 -0.0000 -77.3269 59.1031 -2.8552 -4.7584 7.1250 -0.0000 -0.0000 43.1020 -4.8138 63.8952
0.4584 16.4434 0.3852 3.9006 10.1177 2.2670 0.0000 0.0000 0.0000 -23.6785 -9.4522 -24.6932 9.0655 16.8497 56.3164 3.0472 -0.0333 -33.1114 0.9008 -6.0487 -16.9258 0.0000 0.0000 0.0000 11.3880 -4.1403 -26.9361 -10.0359 -17.4300 59.6083 -2.7079 -11.0735 -36.5023 -0.8349 5.8288 -16.2885 -2.2229 3.1640 10.8560 -0.6779 3.9434 3.4584 0.0350 1.9659 -2.5683 -5.2891 -3.8697 -0.0855 4.1672 -5.6058 21.9527 1.9088 -2.7359 6.9707 -0.0000 0.0000 0.0000 -44.1095 -18.5754 47.2987 154.9024 -36.3036 -111.6524 -0.0000 0.0000 -77.3203 -49.3443 38.4699 -35.9193 -7.1250 0.0000 -0.0000 -81.0617 51.9745 -28.6354 -0.0000 0.0000 0.0000 43.6773 8.3767 48.6262 -152.5111 38.6415 -110.1971 0.0000 -0.0000 -77.2668 59.6098 -2.7402 -4.6602 7.1250 -0.0000 -0.0000 43.0477 -3.4967 65.3032
0.4608 16.4423 0.3875 3.9513 10.0633 2.3628 0.0000 0.0000 0.0000 -23.7391 -9.4602 -24.7972 9.0735 16.8548 56.3440 3.0432 0.0774 -33.1234 0.9248 -6.1266 -17.1522 0.0000 0.0000 0.0000 11.3094 -4.1113 -27.0880 -10.0587 -17.4427 59.6842 -2.7398 -10.8400 -36.5203 -0.7897 5.6727 -15.8376 -2.3424 3.1674 10.8634 -0.6678 3.9370 3.5454 0.1155 1.9618 -2.4902 -5.1724 -3.7967 0.7644 4.2276 -5.5272 20.7845 1.9313 -2.7029 6.4388 -0.0000 -0.0000 0.0000 -44.6027 -18.8582 46.1287 154.8624 -36.3444 -111.6287 -0.0000 0.0000 -77.1443 -49.1467 38.4338 -35.7082 -7.1250 0.0000 -0.0000 -80.8960 51.9955 -28.5321 -0.0000 -0.0000 0.0000 44.0745 8.4930 47.6621 -152.5045 38.6476 -110.1930 0.0000 -0.0000 -76.8486 59.6702 -2.6093 -4.4495 7.1250 -0.0000 -0.0000 43.0333 -3.1468 65.6530
